PathFileType	4	(X/Y/Z)	Kaydara	
DataRate	CameraRate	NumFrames	NumMarkers	Units	OrigDataRate	OrigDataStartFrame	OrigNumFrames	
240.00	240.00	4	72	mm	240.00	315	359	
Frame#	Time	Hips			RightUpLeg			RightLeg			RightFoot			RightFoot_End			LeftUpLeg			LeftLeg			LeftFoot			LeftFoot_End			Spine			Spine1			Spine2			Spine3			Neck			Head			Head_End			RightShoulder			RightArm			RightForeArm			RightHand			RightHandThumb1			RightHandThumb2			RightHandThumb3			RightHandThumb3_End			RightInHandIndex			RightHandIndex1			RightHandIndex2			RightHandIndex3			RightHandIndex3_End			RightInHandMiddle			RightHandMiddle1			RightHandMiddle2			RightHandMiddle3			RightHandMiddle3_End			RightInHandRing			RightHandRing1			RightHandRing2			RightHandRing3			RightHandRing3_End			RightInHandPinky			RightHandPinky1			RightHandPinky2			RightHandPinky3			RightHandPinky3_End			LeftShoulder			LeftArm			LeftForeArm			LeftHand			LeftHandThumb1			LeftHandThumb2			LeftHandThumb3			LeftHandThumb3_End			LeftInHandIndex			LeftHandIndex1			LeftHandIndex2			LeftHandIndex3			LeftHandIndex3_End			LeftInHandMiddle			LeftHandMiddle1			LeftHandMiddle2			LeftHandMiddle3			LeftHandMiddle3_End			LeftInHandRing			LeftHandRing1			LeftHandRing2			LeftHandRing3			LeftHandRing3_End			LeftInHandPinky			LeftHandPinky1			LeftHandPinky2			LeftHandPinky3			LeftHandPinky3_End			
		X1	Y1	Z1	X2	Y2	Z2	X3	Y3	Z3	X4	Y4	Z4	X5	Y5	Z5	X6	Y6	Z6	X7	Y7	Z7	X8	Y8	Z8	X9	Y9	Z9	X10	Y10	Z10	X11	Y11	Z11	X12	Y12	Z12	X13	Y13	Z13	X14	Y14	Z14	X15	Y15	Z15	X16	Y16	Z16	X17	Y17	Z17	X18	Y18	Z18	X19	Y19	Z19	X20	Y20	Z20	X21	Y21	Z21	X22	Y22	Z22	X23	Y23	Z23	X24	Y24	Z24	X25	Y25	Z25	X26	Y26	Z26	X27	Y27	Z27	X28	Y28	Z28	X29	Y29	Z29	X30	Y30	Z30	X31	Y31	Z31	X32	Y32	Z32	X33	Y33	Z33	X34	Y34	Z34	X35	Y35	Z35	X36	Y36	Z36	X37	Y37	Z37	X38	Y38	Z38	X39	Y39	Z39	X40	Y40	Z40	X41	Y41	Z41	X42	Y42	Z42	X43	Y43	Z43	X44	Y44	Z44	X45	Y45	Z45	X46	Y46	Z46	X47	Y47	Z47	X48	Y48	Z48	X49	Y49	Z49	X50	Y50	Z50	X51	Y51	Z51	X52	Y52	Z52	X53	Y53	Z53	X54	Y54	Z54	X55	Y55	Z55	X56	Y56	Z56	X57	Y57	Z57	X58	Y58	Z58	X59	Y59	Z59	X60	Y60	Z60	X61	Y61	Z61	X62	Y62	Z62	X63	Y63	Z63	X64	Y64	Z64	X65	Y65	Z65	X66	Y66	Z66	X67	Y67	Z67	X68	Y68	Z68	X69	Y69	Z69	X70	Y70	Z70	X71	Y71	Z71	X72	Y72	Z72	

315	1.308	198.9409999999998	914.58397	126.699	238.34209999999985	879.5667	49.599120000000006	137.07704999999987	486.60432999999995	-54.40310000000001	143.8979900000004	95.48821000000001	-133.27195	-6.99254000000019	17.738760000000003	-45.376079999999995	172.23226999999952	923.3478899999999	216.76759	83.54626000000007	520.05365	286.75953000000004	-3.2663400000001275	93.86533	352.86355	-123.10987999999998	9.929670000000002	229.85566	140.21154000000024	1033.2697699999999	72.34856000000002	79.60855999999967	1086.5285599999997	18.163320000000002	13.065560000000005	1135.16443	-40.577490000000004	-55.09136000000035	1171.8037199999999	-99.36596	-128.89746000000014	1211.3684300000002	-160.74361999999996	-197.08995999999934	1248.55406	-214.40388	-326.28531999999996	1336.7324599999997	-245.60290000000006	-97.82552999999916	1176.4783500000003	-162.22488000000004	-119.58892999999989	1065.21545	-222.74779999999998	-170.05777000000035	958.3262699999998	13.844139999999996	-289.79913000000033	822.88367	199.63530000000003	-296.7868699999999	833.8133400000002	237.43259	-282.14874000000054	826.89461	270.50998000000004	-271.87346999999954	817.84503	292.12072000000006	-263.2378899999994	806.68095	308.91814999999997	-299.4520700000003	820.1572900000001	236.45734	-303.87433000000055	798.0890000000002	284.57846	-294.58384000000024	780.01001	314.52543	-281.7421999999997	772.43566	328.62624999999997	-266.34712000000036	768.6387699999999	337.25050000000005	-298.4892399999999	809.28736	230.74013	-302.2853099999993	781.88385	274.58459	-291.9907000000003	760.79	306.34781000000004	-276.42245	750.9963000000001	322.92088999999993	-259.5408500000003	746.52313	332.14394	-297.8220799999999	802.1664900000002	225.50916000000004	-301.0134200000002	771.41312	260.36765	-291.8729199999998	751.6746	287.0479900000001	-276.7670599999992	741.50927	302.50051999999994	-260.85188000000016	736.96287	310.91969	-295.9329800000005	794.63344	217.80077	-298.11942999999974	761.76058	245.15763999999996	-290.5236100000002	743.9779599999999	264.80269	-279.3716000000004	735.6071100000001	275.24202	-265.1963799999994	731.02942	282.2213100000001	-110.43267000000014	1220.70554	-117.67475	-113.5935300000001	1291.23486	-11.686049999999998	-113.70110000000022	1054.24132	104.79417000000001	-239.7462400000004	829.7957	133.74743999999998	-274.67413000000033	843.2550499999999	147.74066	-310.28777999999966	839.38824	139.19822999999997	-334.0475699999997	832.3752799999999	132.81144000000003	-352.96403999999984	822.83313	127.11249000000001	-274.33874000000014	829.4738	149.86359	-322.50405000000046	810.9208899999999	162.43740000000003	-354.9874099999997	795.49761	158.32182999999998	-371.7251899999992	789.48871	148.08215000000004	-383.24713000000065	786.9298100000001	134.42566	-269.7802300000003	818.25012	147.62357000000003	-314.29381999999987	794.0839899999999	158.67972999999998	-348.9806099999996	775.83022	153.83640000000003	-368.80989000000045	767.8974300000001	141.31345999999996	-381.2398999999996	764.7653700000001	126.28857000000002	-265.3438299999998	810.7876	145.85040999999998	-301.4246400000002	782.6331399999999	154.60087	-330.81168999999954	765.3058599999999	150.00032999999996	-349.4892699999991	756.90145	137.71963	-360.9636900000005	753.5998800000001	123.49703000000001	-258.73057999999946	802.7747400000001	142.41619000000003	-287.8067600000004	771.98419	148.76607999999996	-309.86139000000003	756.0209700000003	144.45161	-322.77022000000034	748.88063	135.18902	-332.52337999999963	745.37463	122.41457000000003
316	1.313	198.9409999999998	914.58397	126.699	238.07139000000006	879.4357599999998	49.52087	136.8980300000003	486.46012999999994	-54.520469999999996	144.10558000000037	95.36812000000002	-133.47447	-6.783650000000307	17.59045	-45.60137	172.49694	923.4699200000001	216.8337	83.96864000000005	520.1507999999999	286.88196000000005	-2.8919000000005326	93.92747999999999	352.6967	-122.69959000000017	9.942309999999999	229.68768	140.25072999999975	1033.31597	72.40714	79.69048999999995	1086.63304	18.23145	13.191679999999906	1135.3179	-40.518820000000005	-54.92657000000054	1171.97365	-99.34183999999999	-128.69456999999966	1211.5535600000003	-160.7555	-196.85598000000027	1248.7505	-214.44741	-326.08380000000034	1336.8522599999997	-245.72838000000002	-97.62266	1176.6629800000003	-162.22554	-119.44092	1065.4352599999997	-222.79335999999995	-169.2148099999995	960.2507299999999	14.70805	-290.1482900000001	828.3389800000001	202.25918999999996	-295.8943499999996	841.21156	239.65172000000004	-281.2547999999997	834.7177200000001	272.8145099999999	-271.2663199999997	825.91331	294.65970999999996	-263.11600999999973	814.91023	311.80230000000006	-299.4307599999993	827.7248399999999	239.2718	-304.5554599999996	807.9476799999998	288.31066	-296.0020000000004	790.53956	318.86847	-283.46587999999974	782.73888	333.12002	-268.2206900000001	778.3206600000001	341.71455	-299.2379799999999	816.59332	233.99725999999998	-304.1356400000004	791.28327	278.9762999999999	-294.74491000000035	770.8783599999999	311.46144999999996	-279.5930900000003	760.7909199999999	328.24296999999996	-262.89872000000014	755.6278500000001	337.44642	-299.09644000000026	809.2386700000001	229.05721999999997	-303.72983999999997	780.1863199999999	265.18978	-295.47728000000006	761.00082	292.55417000000006	-280.8262399999994	750.52695	308.23686999999995	-265.1123200000002	745.3199299999999	316.65141	-297.79671999999937	801.2949300000001	221.64488	-301.66771999999946	769.7616899999999	250.35853000000003	-294.93282999999974	752.34038	270.6313	-284.18508999999995	743.70503	281.27717999999993	-270.2298700000001	738.51945	288.27462999999995	-110.25553000000036	1220.8808800000002	-117.67347999999998	-113.50801000000047	1291.50002	-11.74737	-112.03791999999976	1055.2575699999998	106.23964	-247.22513999999956	837.27944	142.45367	-281.78192000000035	851.40991	156.70431	-317.55308999999943	847.91462	148.67537	-341.4870200000005	841.1408399999999	142.69351	-360.60381999999936	831.78136	137.37262000000004	-281.6057099999998	837.6561000000002	159.01596999999998	-329.85000000000036	819.9425699999999	172.4669	-362.5903499999995	804.91136	168.98599999999996	-379.54015999999956	798.9915999999998	159.04761000000002	-391.2728499999994	796.40218	145.57757999999998	-277.22936000000027	826.3409	156.87530999999998	-321.91845999999987	802.94402	168.84071000000003	-356.90970000000016	785.10305	164.70023	-377.0063200000004	777.27058	152.54573000000002	-389.6725400000005	774.1016199999999	137.72726	-272.91801999999916	818.79429	155.1502	-309.2599600000003	791.26205	164.75792	-338.9366799999998	774.2779699999999	160.77908000000002	-357.8850399999992	765.9615100000001	148.85859	-369.58766000000014	762.62106	134.83237	-266.45934000000034	810.64452	151.74407999999997	-295.8649399999995	780.3472199999999	158.89865000000003	-318.18830999999955	764.63018	155.09244999999999	-331.3124399999997	757.54014	146.09764	-341.2779899999996	753.99173	133.50006
317	1.317	198.9409999999998	914.58397	126.699	237.8189400000001	879.3086300000001	49.45132000000001	136.76147000000037	486.3184099999999	-54.64751	144.3496299999997	95.25248000000002	-133.69495999999998	-6.539609999999811	17.44598	-45.84738	172.74405000000024	923.58987	216.89394	84.3699800000004	520.2429	286.97654	-2.5418599999993603	93.98509	352.49949999999995	-122.31682	9.960630000000004	229.48544000000004	140.28601000000072	1033.35422	72.45270999999998	79.76867000000038	1086.7213	18.27831	13.314580000000205	1135.4466299999997	-40.48901000000001	-54.76317000000017	1172.1120900000003	-99.35283999999999	-128.4911600000005	1211.7002099999997	-160.80924999999996	-196.6198600000007	1248.9023499999996	-214.53906000000003	-325.88486999999986	1336.96341	-245.78091999999998	-97.41939000000002	1176.8088299999997	-162.26304	-119.29490999999962	1065.6215299999997	-222.88440000000003	-168.51321000000007	962.03768	15.434899999999999	-290.42859000000044	833.54359	204.71498999999997	-295.3467899999996	847.5815799999999	241.80499	-280.68013000000064	841.3743999999999	275.01067	-270.84886000000006	832.75032	296.99866	-262.98027	821.88106	314.35689	-299.4045500000002	834.2370399999999	241.80174	-304.8610699999999	815.9342999999999	291.37435	-296.71991999999955	798.9943300000001	322.30562000000003	-284.37051000000065	791.07979	336.65705	-269.2328900000002	786.2942	345.2450099999999	-299.6877999999997	822.97519	236.81584000000004	-305.16654000000017	799.0329000000002	282.47162	-296.2876900000001	779.1161699999999	315.40065	-281.3908499999998	768.8804700000001	332.32011	-264.82864999999947	763.31014	341.5248700000001	-299.8734800000002	815.4966599999999	232.06693	-305.30987000000005	787.5796299999998	268.97430999999995	-297.5658800000001	768.79424	296.76168	-283.19394999999986	758.1638699999999	312.5966	-267.6200000000008	752.56753	321.02144	-298.94621000000006	807.3215	224.85293	-303.78134000000045	776.7069400000001	254.40245	-297.5475800000004	759.5614000000002	275.06683	-287.0488399999995	750.79032	285.84934000000004	-273.24374999999964	745.24744	292.8706399999999	-110.07905000000028	1221.0227899999998	-117.71468	-113.41080000000056	1291.7201499999999	-11.843230000000002	-109.88787999999931	1056.44177	108.01194	-250.53952000000027	842.7629600000001	148.75490999999997	-284.7139099999995	857.5629399999998	163.24604	-320.62930999999935	854.4594799999999	155.71543	-344.72857999999997	847.9405299999999	150.12717999999995	-364.03872000000047	838.77807	145.17426	-284.69758999999976	843.84015	165.74141	-333.00565000000006	826.98213	180.03635999999997	-365.99155000000064	812.36347	177.17118000000002	-383.14663999999993	806.5481499999999	167.52772	-395.08471999999983	803.94262	154.24254	-280.50506999999925	832.4374399999999	163.69938	-325.3557600000004	809.82773	176.54137000000003	-360.6392599999999	792.42237	173.08308	-380.9952000000003	784.7089299999999	161.28934999999998	-393.8918199999998	781.51894	146.67553	-276.3203799999992	824.8090999999998	162.0226	-312.91237999999976	797.9169299999999	172.45842	-342.86843000000044	781.29641	169.08333	-362.0799999999999	773.0861799999999	157.51569999999998	-374.00545000000056	769.7219099999999	143.68421	-270.0184799999997	816.5253000000001	158.64627999999996	-299.74470999999994	786.73911	166.57964000000004	-322.3290700000007	771.28522	163.26757999999995	-335.66322000000036	764.2591400000002	154.53530999999995	-345.83655	760.68184	142.1132
318	1.321	198.9409999999998	914.58397	126.699	237.58247000000028	879.1823	49.39049000000001	136.65278000000035	486.17617	-54.77224	144.60441999999966	95.13618	-133.91224999999997	-6.28479999999945	17.305729999999997	-46.08585999999999	172.9756699999998	923.7108899999998	216.94873	84.74722999999994	520.3364999999999	287.05698000000007	-2.226230000000214	94.04797	352.29776	-121.97811000000002	9.99405	229.28135	140.3183600000002	1033.3841100000002	72.4832	79.8431300000002	1086.79254	18.30252	13.433109999999942	1135.54959	-40.488290000000006	-54.60392000000047	1172.2179700000002	-99.39737999999998	-128.29161000000022	1211.80722	-160.90135999999998	-196.38723000000027	1249.00847	-214.67371000000003	-325.69732999999997	1337.0641899999998	-245.74356	-97.2199299999993	1176.91492	-162.33481	-119.15516000000025	1065.7737799999998	-223.0192	-167.94462999999996	963.68056	16.0304	-290.63274	838.4801399999999	207.01083	-295.24385000000075	852.93388	243.98040000000003	-280.5130199999994	846.8875299999999	277.18735000000004	-270.6896200000001	838.36911	299.21999	-262.8725400000003	827.58251	316.65290000000005	-299.4501799999998	839.6362000000001	244.12405000000004	-304.90976000000046	821.8807100000001	293.89497000000006	-296.83290000000034	805.1535900000001	324.95864000000006	-284.5145400000001	797.24186	339.33828	-269.39660000000003	792.3712299999999	347.91308	-299.87921000000006	828.33006	239.25004	-305.43976999999995	804.89765	285.15975999999995	-296.65038000000004	785.20534	318.24739	-281.8002499999993	774.96928	335.20765	-265.2640900000006	769.30408	344.40130000000005	-300.16751999999997	820.80806	234.57551	-305.76548	793.31542	271.77614	-298.11906999999974	774.7168200000001	299.71576	-283.80260999999973	764.08141	315.59748999999994	-268.25806999999986	758.3936499999999	324.01541000000003	-299.3607099999999	812.5529600000001	227.43847	-304.4173200000005	782.2845	257.30575	-298.29158000000007	765.2729	278.11264000000006	-287.8477500000008	756.4905899999999	288.93925	-274.0770400000001	750.8623699999999	295.96016000000003	-109.9066899999998	1221.12995	-117.79521999999999	-113.30356000000029	1291.89376	-11.97025	-107.23829000000023	1057.83698	110.15356	-249.6009100000001	845.6457299999998	152.68903	-283.39692000000014	861.11487	167.36747	-319.43758999999955	858.40432	160.29775999999998	-343.68778999999995	852.14248	155.08076	-363.17824999999993	843.1802299999999	150.48035	-283.5385499999993	847.4288799999999	170.05369000000002	-331.90048000000024	831.4386	185.14153	-365.11437000000024	817.2389199999999	182.86317999999997	-382.45970000000034	811.5287100000002	173.50132	-394.5879500000001	808.90539	160.39307	-279.5264699999998	835.94226	168.12249	-324.5272299999997	814.13359	181.79776	-360.0833700000003	797.1713000000001	178.99191	-380.6802799999996	789.5778999999999	167.54372000000004	-393.79056000000037	786.3651499999999	153.12632999999997	-275.46635999999944	828.23443	166.50390000000002	-312.2966000000006	801.9968399999999	177.73741	-342.5144700000001	785.74679	174.94204	-361.9713099999999	777.6439999999999	163.71357	-374.10373999999956	774.25437	150.06954	-269.31836999999996	819.8185800000001	163.17065	-299.35296000000017	790.55816	171.86289	-322.1836599999997	775.37354	169.0288	-335.7144699999999	768.41259	160.55058	-346.08136000000013	764.8052	148.29836
